<?xml version="1.0" encoding="UTF-8" standalone="no"?>
<!-- Created with Inkscape (http://www.inkscape.org/) -->

<svg
   width="210mm"
   height="297mm"
   viewBox="0 0 210 297"
   version="1.1"
   id="svg1"
   inkscape:version="1.3 (0e150ed6c4, 2023-07-21)"
   sodipodi:docname="LOR.svg"
   xmlns:inkscape="http://www.inkscape.org/namespaces/inkscape"
   xmlns:sodipodi="http://sodipodi.sourceforge.net/DTD/sodipodi-0.dtd"
   xmlns="http://www.w3.org/2000/svg"
   xmlns:svg="http://www.w3.org/2000/svg">
  <sodipodi:namedview
     id="namedview1"
     pagecolor="#ffffff"
     bordercolor="#000000"
     borderopacity="0.25"
     inkscape:showpageshadow="2"
     inkscape:pageopacity="0.0"
     inkscape:pagecheckerboard="0"
     inkscape:deskcolor="#d1d1d1"
     inkscape:document-units="mm"
     inkscape:zoom="0.93103385"
     inkscape:cx="357.12987"
     inkscape:cy="466.6855"
     inkscape:window-width="1920"
     inkscape:window-height="974"
     inkscape:window-x="-11"
     inkscape:window-y="-11"
     inkscape:window-maximized="1"
     inkscape:current-layer="layer1" />
  <defs
     id="defs1">
    <filter
       style="color-interpolation-filters:sRGB"
       x="-0.19227008"
       width="1.3845402"
       y="-0.79262362"
       height="2.5852472"
       inkscape:menu="Non-Realistic 3D Shaders"
       inkscape:menu-tooltip="Chrome effect with darkened edges"
       inkscape:label="Sharp Metal"
       id="filter28">
      <feGaussianBlur
         result="result8"
         stdDeviation="5"
         in="SourceGraphic"
         id="feGaussianBlur22" />
      <feComposite
         in="result8"
         result="result19"
         in2="result8"
         operator="xor"
         id="feComposite22" />
      <feComposite
         k2="1"
         operator="arithmetic"
         result="result17"
         in2="result8"
         id="feComposite23" />
      <feComposite
         in2="result17"
         in="SourceGraphic"
         operator="atop"
         result="result6"
         id="feComposite24" />
      <feOffset
         result="result18"
         id="feOffset24" />
      <feDisplacementMap
         in2="result6"
         result="result4"
         scale="100"
         yChannelSelector="A"
         xChannelSelector="A"
         in="result18"
         id="feDisplacementMap24" />
      <feComposite
         in2="result4"
         k1="1"
         in="result4"
         operator="arithmetic"
         result="result2"
         k3="1"
         id="feComposite25" />
      <feComposite
         in2="result2"
         operator="over"
         in="result2"
         result="fbSourceGraphic"
         id="feComposite26" />
      <feComposite
         in2="result19"
         operator="over"
         result="result15"
         id="feComposite27" />
      <feComposite
         result="result16"
         in2="SourceGraphic"
         operator="in"
         in="result15"
         id="feComposite28" />
    </filter>
    <filter
       inkscape:label="Lapping"
       inkscape:menu="Distort"
       inkscape:menu-tooltip="Something like a water noise"
       height="1.322366"
       y="-0.16118742"
       width="1.1767216"
       x="-0.088385624"
       style="color-interpolation-filters:sRGB;"
       id="filter35">
      <feTurbulence
         numOctaves="5"
         seed="0"
         type="fractalNoise"
         baseFrequency="0.1"
         result="result1"
         id="feTurbulence35" />
      <feGaussianBlur
         stdDeviation="2"
         result="result2"
         id="feGaussianBlur35" />
      <feDisplacementMap
         scale="50"
         yChannelSelector="B"
         xChannelSelector="R"
         in="SourceGraphic"
         in2="result2"
         id="feDisplacementMap35" />
    </filter>
    <filter
       y="-5.1777205"
       width="1.4185187"
       height="9.9863569"
       x="-0.23091831"
       inkscape:label="Fire"
       inkscape:menu="Protrusions"
       inkscape:menu-tooltip="Edges of object are on fire"
       style="color-interpolation-filters:sRGB;"
       id="filter41">
      <feMorphology
         result="result1"
         radius="2.4"
         operator="dilate"
         id="feMorphology37" />
      <feTurbulence
         baseFrequency="0.09 0.028"
         numOctaves="1"
         id="feTurbulence37" />
      <feColorMatrix
         result="result2"
         values="2 0 0 0 0 0 2 0 0 0 0 0 0 0 0 0 0 0 1 0"
         id="feColorMatrix37" />
      <feDisplacementMap
         result="result4"
         scale="10.319410319410318"
         yChannelSelector="G"
         xChannelSelector="R"
         in="result1"
         in2="result2"
         id="feDisplacementMap37" />
      <feFlood
         result="result3"
         flood-opacity="1"
         flood-color="rgb(255,159,54)"
         id="feFlood37" />
      <feMorphology
         radius="3.8"
         result="result7"
         in="result4"
         id="feMorphology38" />
      <feGaussianBlur
         result="result7"
         in="result7"
         stdDeviation="2.4"
         id="feGaussianBlur38" />
      <feComposite
         result="result5"
         in2="result4"
         in="result3"
         operator="in"
         id="feComposite38" />
      <feComposite
         operator="out"
         in2="result7"
         id="feComposite39" />
      <feOffset
         result="result6"
         dy="-7"
         dx="-4.5"
         id="feOffset39" />
      <feGaussianBlur
         result="result7"
         stdDeviation="4.8"
         id="feGaussianBlur39" />
      <feComposite
         in="SourceGraphic"
         in2="result6"
         id="feComposite40" />
      <feComposite
         in2="result7"
         id="feComposite41" />
    </filter>
    <filter
       inkscape:label="Lapping"
       inkscape:menu="Distort"
       inkscape:menu-tooltip="Something like a water noise"
       height="1.1762721"
       y="-0.088159192"
       width="1.1609952"
       x="-0.080551031"
       style="color-interpolation-filters:sRGB;"
       id="filter45">
      <feTurbulence
         numOctaves="5"
         seed="0"
         type="fractalNoise"
         baseFrequency="0.1"
         result="result1"
         id="feTurbulence45" />
      <feGaussianBlur
         stdDeviation="2"
         result="result2"
         id="feGaussianBlur45" />
      <feDisplacementMap
         scale="50"
         yChannelSelector="B"
         xChannelSelector="R"
         in="SourceGraphic"
         in2="result2"
         id="feDisplacementMap45" />
    </filter>
    <filter
       y="-1.1675758"
       height="3.3351516"
       inkscape:menu-tooltip="Darkens the edge with an inner blur and adds a flexible glow"
       inkscape:menu="Shadows and Glows"
       inkscape:label="Dark and Glow"
       style="color-interpolation-filters:sRGB;"
       id="filter47"
       x="-0.17394042"
       width="1.3478808">
      <feGaussianBlur
         stdDeviation="5"
         result="result6"
         id="feGaussianBlur46" />
      <feComposite
         result="result8"
         in="SourceGraphic"
         operator="atop"
         in2="result6"
         id="feComposite46" />
      <feComposite
         result="result9"
         operator="over"
         in2="SourceAlpha"
         in="result8"
         id="feComposite47" />
      <feColorMatrix
         values="1 0 0 0 0 0 1 0 0 0 0 0 1 0 0 0 0 0 1 0 "
         result="result10"
         id="feColorMatrix47" />
      <feBlend
         in="result10"
         mode="normal"
         in2="result6"
         id="feBlend47" />
    </filter>
  </defs>
  <g
     inkscape:label="Слой 1"
     inkscape:groupmode="layer"
     id="layer1">
    <g
       id="g47"
       transform="matrix(0.81986254,0,0,0.7892098,25.705466,-12.738878)">
      <ellipse
         style="opacity:0.99;fill:#ff820d;fill-opacity:0;stroke:#e1e227;stroke-width:7.218;stroke-linejoin:round;stroke-miterlimit:4.7;stroke-dasharray:none;stroke-opacity:0.679666;filter:url(#filter28)"
         id="path1"
         cx="80.626137"
         cy="147.51097"
         rx="40.591339"
         ry="9.8464136"
         transform="matrix(1.071536,0,0,1.0533974,-9.4620402,-8.1608916)" />
      <text
         xml:space="preserve"
         style="font-size:16px;line-height:0px;font-family:'Blackadder ITC';-inkscape-font-specification:'Blackadder ITC';text-align:start;text-anchor:start;opacity:0.99;fill:#ff820d;fill-opacity:0.952646;stroke:#e1e227;stroke-width:5.41801;stroke-linejoin:round;stroke-miterlimit:4.7;stroke-opacity:0.0362117"
         x="53.788364"
         y="118.71003"
         id="text6"><tspan
           sodipodi:role="line"
           id="tspan6"
           style="stroke-width:5.418"
           x="53.788364"
           y="118.71003">The Lord </tspan><tspan
           sodipodi:role="line"
           style="stroke-width:5.418"
           x="53.788364"
           y="118.71003"
           id="tspan9" /><tspan
           sodipodi:role="line"
           style="stroke-width:5.418"
           x="53.788364"
           y="118.71003"
           id="tspan10" /><tspan
           sodipodi:role="line"
           style="stroke-width:5.418"
           x="53.788364"
           y="118.71003"
           id="tspan7" /><tspan
           sodipodi:role="line"
           style="stroke-width:5.418"
           x="53.788364"
           y="118.71003"
           id="tspan8" /></text>
      <text
         xml:space="preserve"
         style="font-size:16px;line-height:0px;font-family:'Blackadder ITC';-inkscape-font-specification:'Blackadder ITC';text-align:start;text-anchor:start;opacity:0.99;fill:#ff820d;fill-opacity:0.952646;stroke:#e1e227;stroke-width:5.41801;stroke-linejoin:round;stroke-miterlimit:4.7;stroke-opacity:0.0362117"
         x="62.816708"
         y="133.82393"
         id="text11"><tspan
           sodipodi:role="line"
           id="tspan11"
           style="stroke-width:5.418"
           x="62.816708"
           y="133.82393">of the </tspan><tspan
           sodipodi:role="line"
           style="stroke-width:5.418"
           x="62.816708"
           y="133.82393"
           id="tspan12" /></text>
      <text
         xml:space="preserve"
         style="font-size:16px;line-height:0px;font-family:'Blackadder ITC';-inkscape-font-specification:'Blackadder ITC';text-align:start;text-anchor:start;opacity:0.99;fill:#ff820d;fill-opacity:0.952646;stroke:#e1e227;stroke-width:5.41801;stroke-linejoin:round;stroke-miterlimit:4.7;stroke-opacity:0.0362117"
         x="65.090172"
         y="146.87956"
         id="text13"><tspan
           sodipodi:role="line"
           id="tspan13"
           style="stroke-width:5.418"
           x="65.090172"
           y="146.87956">rings</tspan></text>
      <path
         style="opacity:0.99;fill:#1a8a07;fill-opacity:0.952646;stroke:#e1e227;stroke-width:7.21799;stroke-linejoin:round;stroke-miterlimit:4.7;stroke-dasharray:none;stroke-opacity:0.0362117;filter:url(#filter35)"
         id="path29"
         d="m 42.407351,116.04779 c 0.930794,-0.66463 1.792235,-1.41686 2.655597,-2.16461 0.826103,-0.63036 1.238996,-1.5093 1.349851,-2.5212 0.05258,-0.9921 -0.320008,-1.91965 -0.839787,-2.74553 -0.656077,-0.81374 -1.379837,-1.57068 -2.098937,-2.32871 -0.664628,-0.78862 -1.314556,-1.58889 -1.746785,-2.53022 -0.384228,-0.80086 -0.764908,-1.60641 -0.894138,-2.49028 0.10858,-0.76455 0.390938,-1.491455 1.03759,-1.940415 0.874771,-0.33156 1.838312,-0.31985 2.762157,-0.33702 0.893758,-0.0758 1.760424,0.14749 2.639666,0.26099 0.986846,0.11783 1.981655,0.13502 2.97424,0.15097 0.970814,-0.0273 1.455383,-0.79384 1.980366,-1.508143 0.627833,-1.015699 1.12323,-2.088182 1.38942,-3.252539 0.249507,-0.978525 0.0019,-1.825051 -0.521621,-2.651903 -0.62946,-0.966996 -1.163794,-1.988526 -1.68226,-3.01793 -0.692362,-1.198369 -1.17764,-2.473931 -1.452526,-3.826923 -0.211124,-0.961623 0.0038,-1.860896 0.605266,-2.62858 0.849805,-0.653859 1.96183,-0.714568 2.993221,-0.781378 1.356527,0.03632 2.672374,-0.312576 4.0039,-0.525497 1.072435,-0.226282 2.183127,-0.15585 3.25746,-0.339542 0.9095,-0.297148 0.938953,-1.247611 1.015682,-2.066245 0.06302,-1.029827 0.03964,-2.062475 0.03305,-3.09354 -0.01918,-0.998866 0.110234,-2.000152 0.426707,-2.947554 0.359868,-0.901186 1.049269,-1.233016 1.947426,-1.404249 1.025739,-0.124076 2.061715,-0.107455 3.09299,-0.103381 1.076531,-0.09342 1.873639,0.15888 2.864884,0.512387 0.215138,0.112038 0.866011,0.436981 0.645414,0.336119 -0.351105,-0.160534 -0.651364,-0.503653 -1.037251,-0.515274 -0.259982,-0.0078 0.402942,0.329245 0.59736,0.502026 0.542415,0.482042 1.04181,1.010468 1.544124,1.533168 1.309627,1.257191 2.883374,2.33099 4.612963,2.9035 1.215234,0.282147 2.478178,0.421503 3.723865,0.327443 1.271011,-0.198154 1.615757,-0.890889 1.91157,-2.045372 0.07207,-1.071419 0.29927,-2.09424 0.588049,-3.124377 0.2568,-0.80445 0.265888,-1.651526 0.397531,-2.477063 0.22392,-0.779278 0.584542,-1.514388 1.25593,-1.988982 0.742566,-0.378814 1.590077,-0.360817 2.402697,-0.37897 0.931817,-0.02986 1.85157,-0.04944 2.739477,0.262397 0.971333,0.605719 -0.52366,-0.334946 -1.075539,-0.561564 -0.137205,-0.05634 0.211214,0.208332 0.314476,0.314803 0.346959,0.357736 0.605745,0.712849 0.855226,1.143281 0.713518,1.428001 2.205233,2.290598 3.717044,2.724695 0.901798,0.196006 1.800047,0.246039 2.62119,-0.214844 0.428389,-0.555911 0.990258,-0.842137 1.584364,-1.167683 0.513491,-0.688819 0.408541,-1.571543 0.511291,-2.378443 0.68721,-0.93191 2.018499,-1.289669 3.081799,-1.623169 0.61346,-0.139861 1.23325,-0.354758 1.87256,-0.3278 0.14214,0.006 0.28564,0.02718 0.42068,0.07194 0.11018,0.03653 0.40769,0.222189 0.30476,0.168524 -0.48891,-0.254889 -0.97517,-0.514824 -1.46275,-0.772237 0.43881,0.838388 0.70578,1.776116 0.92647,2.695736 0.15966,0.922023 0.1919,1.82884 0.57705,2.692604 0.56077,0.920419 1.44955,1.536417 2.25287,2.222749 1.99042,1.628005 2.57994,1.863807 4.60008,1.137798 1.2797,-0.457615 2.64262,-0.589632 3.98896,-0.691846 1.17855,-0.05301 2.36336,-0.117443 3.53993,-0.01318 0.63167,0.177522 2.51284,0.87771 -0.44047,-0.406786 -0.0872,-0.03793 0.13895,0.133932 0.18514,0.217064 0.10724,0.193051 0.0443,0.273579 -0.005,0.47289 -0.47548,0.703024 -0.9701,1.360704 -1.27985,2.159661 -0.10025,0.373854 -0.12435,0.739003 0.2616,0.968574 1.81207,1.077854 1.73586,1.129347 3.30119,1.297135 1.18628,0.09381 2.37761,0.08749 3.56673,0.08489 1.00618,-0.08824 1.99658,-0.334156 3.00968,-0.291203 0.12469,0.03436 0.2556,0.05119 0.37408,0.103089 0.10323,0.04522 0.38407,0.234998 0.28315,0.184799 -0.4941,-0.24579 -0.95113,-0.569548 -1.46437,-0.772388 -0.0952,-0.03764 0.12029,0.166984 0.16531,0.258969 0.12311,0.251553 0.13287,0.418812 0.18543,0.697391 0.10031,0.884275 0.0806,1.776609 0.074,2.664963 -0.0368,0.828109 -0.32032,1.584111 -0.68109,2.317618 -0.43473,0.678021 -0.65488,1.457766 -1.04892,2.156838 -0.47387,0.712576 -0.57127,1.525124 -0.64223,2.356146 -0.0746,1.036077 -0.14438,2.044589 0.26292,3.016552 0.44253,0.728385 1.18904,1.204833 1.89971,1.646145 0.8271,0.561813 1.64865,1.129075 2.47481,1.692185 0.83649,0.577188 1.22042,1.396063 1.58427,2.302854 0.35708,0.782994 0.46146,1.623166 0.52162,2.471396 0.0212,0.990056 -0.36573,1.815206 -1.12548,2.432801 -0.6887,0.3308 -1.28571,0.79367 -1.81427,1.34028 -0.4646,0.68962 0.016,1.21482 0.49699,1.71878 0.55231,0.58508 1.26447,0.96231 1.88956,1.45654 0.60768,0.44437 1.07822,1.03987 1.54516,1.62377 0.44767,0.61032 0.55228,1.34361 0.61819,2.0766 0.0878,0.76563 0.004,1.48916 -0.34558,2.17678 -0.31732,0.62343 -0.70594,1.19592 -1.33823,1.51858 -0.52775,0.15404 -1.06118,0.26039 -1.55288,0.51515 0,0 1.65433,1.09029 1.65433,1.09029 v 0 c 0.50193,-0.23147 1.04335,-0.32371 1.55641,-0.52326 0.64355,-0.37333 1.06419,-0.96263 1.39671,-1.6214 0.36917,-0.71713 0.48553,-1.46989 0.39713,-2.27367 -0.0575,-0.75824 -0.14557,-1.52462 -0.56892,-2.17881 -0.44827,-0.60325 -0.93802,-1.20547 -1.53268,-1.66655 -0.60476,-0.52041 -1.32452,-0.87113 -1.89397,-1.43318 -0.39289,-0.41017 -1.02414,-0.83444 -0.63375,-1.44776 0.53019,-0.53806 1.13154,-0.97178 1.79932,-1.32644 0.78247,-0.67638 1.21121,-1.54598 1.21471,-2.595095 -0.0542,-0.864285 -0.13414,-1.727559 -0.49383,-2.528355 -0.38234,-0.917975 -0.69675,-1.793761 -1.54307,-2.407285 -0.80758,-0.586155 -1.66542,-1.1053 -2.46767,-1.702475 -0.70301,-0.427945 -1.43971,-0.876207 -1.94455,-1.5377 -0.4549,-0.933582 -0.38821,-1.911019 -0.31029,-2.928342 0.0655,-0.803129 0.15199,-1.588617 0.60883,-2.278338 0.39212,-0.704162 0.61791,-1.485095 1.05421,-2.166268 0.37154,-0.760015 0.66741,-1.5421 0.72005,-2.397289 0.006,-0.898014 0.0227,-1.798534 -0.0578,-2.693992 -0.2286,-1.656136 -1.26556,-2.14593 -2.90996,-2.501744 -1.01259,0.003 -2.00115,0.229041 -3.00975,0.296576 -1.18271,0.0041 -2.36829,0.01156 -3.54701,-0.09997 -0.20604,-0.02698 -0.41354,-0.04455 -0.61814,-0.08094 -0.18746,-0.03335 -0.69523,-0.258678 -0.55669,-0.128053 0.36869,0.347631 0.864,0.530352 1.28403,0.813832 0.0982,0.06628 -0.23117,-0.07925 -0.31685,-0.161073 -0.18048,-0.172353 -0.088,-0.377341 -0.0572,-0.578062 0.30546,-0.808799 0.82005,-1.458926 1.29443,-2.170994 0.0741,-0.23364 0.16536,-0.384455 0.0841,-0.63429 -0.34086,-1.047621 -2.08165,-1.535039 -3.14081,-1.762443 -1.18441,-0.07734 -2.37395,-0.0361 -3.55792,0.03828 -1.3581,0.116742 -2.73022,0.265964 -4.02035,0.73144 -0.49548,0.169831 -1.01211,0.393243 -1.55055,0.327192 -0.16382,-0.02011 -0.60299,-0.235551 -0.47856,-0.127116 0.36951,0.321995 0.81432,0.547184 1.2398,0.790471 0.13304,0.07608 -0.23949,-0.191312 -0.35924,-0.286967 -0.78094,-0.694708 -1.67774,-1.271235 -2.2819,-2.146953 -0.42487,-0.845087 -0.45585,-1.73396 -0.59763,-2.656192 -0.21877,-0.952783 -0.53209,-1.878258 -0.87007,-2.794489 -2.26255,-1.428848 -2.17263,-1.67435 -4.581649,-0.993823 -1.1346,0.36994 -2.531889,0.754708 -3.21493,1.801918 -0.101496,0.738135 0.0218,1.573279 -0.420737,2.214745 -0.597475,0.314966 -1.132081,0.649063 -1.579883,1.169242 -0.800071,0.397227 -1.681686,0.303458 -2.528271,0.0883 -0.865944,-0.302437 -0.53417,-0.217347 0.906018,0.653643 0.127249,0.07696 -0.260154,-0.145841 -0.37942,-0.234667 -0.39664,-0.29541 -0.690071,-0.677238 -0.885143,-1.130538 -0.752152,-1.420291 -1.921864,-2.281203 -3.454244,-2.91053 -0.907404,-0.256165 -1.835205,-0.234876 -2.771809,-0.205058 -0.849119,0.02355 -1.725591,0.02537 -2.478622,0.473327 -0.68875,0.531159 -1.083191,1.29513 -1.330156,2.121357 -0.142557,0.817457 -0.132524,1.660798 -0.383974,2.460723 -0.284318,1.032185 -0.531457,2.055133 -0.588957,3.129738 -0.267912,1.100849 -0.565089,1.686988 -1.777111,1.836534 -1.232982,0.06108 -2.48167,-0.06218 -3.673697,-0.388528 -0.190135,-0.07147 -0.726062,-0.344905 -0.570405,-0.214408 0.346893,0.290828 0.767223,0.481008 1.158965,0.70784 0.165958,0.09609 -0.324493,-0.20479 -0.481171,-0.31537 -0.04148,-0.02928 -0.856247,-0.648719 -0.909108,-0.693896 -0.15879,-0.135705 -0.304919,-0.285562 -0.457377,-0.428342 -1.492317,-1.56178 -3.026977,-3.012927 -5.104824,-3.816996 C 67.698348,70.21964 66.7682,70.01022 65.744987,70.09749 c -1.040794,-0.0021 -2.087948,-0.01746 -3.120424,0.134358 -0.95055,0.215355 -1.669963,0.633045 -2.052637,1.579343 -0.333174,0.963695 -0.472303,1.987338 -0.454978,3.006974 0.0067,1.024855 0.02408,2.050936 -0.02804,3.0749 -0.06216,0.727501 -0.03919,1.621396 -0.883928,1.840476 -1.074991,0.152239 -2.173153,0.132469 -3.241686,0.351941 -1.328867,0.218567 -2.647076,0.535228 -4.0021,0.505185 -1.081892,0.08359 -2.231816,0.180755 -3.090299,0.916127 -0.61817,0.813163 -0.892905,1.762287 -0.678519,2.779935 0.267489,1.370026 0.735724,2.669924 1.442503,3.879487 0.507352,1.034151 1.036005,2.056935 1.649847,3.032501 0.552923,0.75991 0.831252,1.568249 0.600313,2.511155 -0.251143,1.140555 -0.725435,2.192629 -1.348293,3.181213 -0.508778,0.675491 -0.953304,1.364054 -1.881158,1.350179 -0.988836,-0.0176 -1.979835,-0.04115 -2.961648,-0.170752 -0.882711,-0.126981 -1.759072,-0.313092 -2.657168,-0.235106 -0.952948,0.02574 -1.958586,0.01789 -2.836852,0.431943 -0.679493,0.523476 -0.991222,1.293166 -1.132864,2.127731 0.0984,0.90379 0.462629,1.73302 0.868082,2.54092 0.411096,0.97156 1.0624,1.78165 1.72656,2.59419 0.707308,0.76053 1.427974,1.50738 2.105075,2.29578 0.54174,0.7668 0.920083,1.67371 0.899956,2.62515 -0.07761,0.97298 -0.487542,1.79125 -1.275154,2.39206 -0.851379,0.75042 -1.708713,1.50028 -2.650098,2.1377 z"
         transform="matrix(0.991599,0,0,0.87360203,-11.34993,35.384397)" />
      <path
         style="opacity:0.99;fill:#1a8a07;fill-opacity:0.952646;stroke:#e1e227;stroke-width:7.21799;stroke-linejoin:round;stroke-miterlimit:4.7;stroke-dasharray:none;stroke-opacity:0.0362117;filter:url(#filter35)"
         id="path35"
         d="m 42.407351,116.04779 c 0.930794,-0.66463 1.792235,-1.41686 2.655597,-2.16461 0.826103,-0.63036 1.238996,-1.5093 1.349851,-2.5212 0.05258,-0.9921 -0.320008,-1.91965 -0.839787,-2.74553 -0.656077,-0.81374 -1.379837,-1.57068 -2.098937,-2.32871 -0.664628,-0.78862 -1.314556,-1.58889 -1.746785,-2.53022 -0.384228,-0.80086 -0.764908,-1.60641 -0.894138,-2.49028 0.10858,-0.76455 0.390938,-1.491455 1.03759,-1.940415 0.874771,-0.33156 1.838312,-0.31985 2.762157,-0.33702 0.893758,-0.0758 1.760424,0.14749 2.639666,0.26099 0.986846,0.11783 1.981655,0.13502 2.97424,0.15097 0.970814,-0.0273 1.455383,-0.79384 1.980366,-1.508143 0.627833,-1.015699 1.12323,-2.088182 1.38942,-3.252539 0.249507,-0.978525 0.0019,-1.825051 -0.521621,-2.651903 -0.62946,-0.966996 -1.163794,-1.988526 -1.68226,-3.01793 -0.692362,-1.198369 -1.17764,-2.473931 -1.452526,-3.826923 -0.211124,-0.961623 0.0038,-1.860896 0.605266,-2.62858 0.849805,-0.653859 1.96183,-0.714568 2.993221,-0.781378 1.356527,0.03632 2.672374,-0.312576 4.0039,-0.525497 1.072435,-0.226282 2.183127,-0.15585 3.25746,-0.339542 0.9095,-0.297148 0.938953,-1.247611 1.015682,-2.066245 0.06302,-1.029827 0.03964,-2.062475 0.03305,-3.09354 -0.01918,-0.998866 0.110234,-2.000152 0.426707,-2.947554 0.359868,-0.901186 1.049269,-1.233016 1.947426,-1.404249 1.025739,-0.124076 2.061715,-0.107455 3.09299,-0.103381 1.076531,-0.09342 1.873639,0.15888 2.864884,0.512387 0.215138,0.112038 0.866011,0.436981 0.645414,0.336119 -0.351105,-0.160534 -0.651364,-0.503653 -1.037251,-0.515274 -0.259982,-0.0078 0.402942,0.329245 0.59736,0.502026 0.542415,0.482042 1.04181,1.010468 1.544124,1.533168 1.309627,1.257191 2.883374,2.33099 4.612963,2.9035 1.215234,0.282147 2.478178,0.421503 3.723865,0.327443 1.271011,-0.198154 1.615757,-0.890889 1.91157,-2.045372 0.07207,-1.071419 0.29927,-2.09424 0.588049,-3.124377 0.2568,-0.80445 0.265888,-1.651526 0.397531,-2.477063 0.22392,-0.779278 0.584542,-1.514388 1.25593,-1.988982 0.742566,-0.378814 1.590077,-0.360817 2.402697,-0.37897 0.931817,-0.02986 1.85157,-0.04944 2.739477,0.262397 0.971333,0.605719 -0.52366,-0.334946 -1.075539,-0.561564 -0.137205,-0.05634 0.211214,0.208332 0.314476,0.314803 0.346959,0.357736 0.605745,0.712849 0.855226,1.143281 0.713518,1.428001 2.205233,2.290598 3.717044,2.724695 0.901798,0.196006 1.800047,0.246039 2.62119,-0.214844 0.428389,-0.555911 0.990258,-0.842137 1.584364,-1.167683 0.513491,-0.688819 0.408541,-1.571543 0.511291,-2.378443 0.68721,-0.93191 2.018499,-1.289669 3.081799,-1.623169 0.61346,-0.139861 1.23325,-0.354758 1.87256,-0.3278 0.14214,0.006 0.28564,0.02718 0.42068,0.07194 0.11018,0.03653 0.40769,0.222189 0.30476,0.168524 -0.48891,-0.254889 -0.97517,-0.514824 -1.46275,-0.772237 0.43881,0.838388 0.70578,1.776116 0.92647,2.695736 0.15966,0.922023 0.1919,1.82884 0.57705,2.692604 0.56077,0.920419 1.44955,1.536417 2.25287,2.222749 1.99042,1.628005 2.57994,1.863807 4.60008,1.137798 1.2797,-0.457615 2.64262,-0.589632 3.98896,-0.691846 1.17855,-0.05301 2.36336,-0.117443 3.53993,-0.01318 0.63167,0.177522 2.51284,0.87771 -0.44047,-0.406786 -0.0872,-0.03793 0.13895,0.133932 0.18514,0.217064 0.10724,0.193051 0.0443,0.273579 -0.005,0.47289 -0.47548,0.703024 -0.9701,1.360704 -1.27985,2.159661 -0.10025,0.373854 -0.12435,0.739003 0.2616,0.968574 1.81207,1.077854 1.73586,1.129347 3.30119,1.297135 1.18628,0.09381 2.37761,0.08749 3.56673,0.08489 1.00618,-0.08824 1.99658,-0.334156 3.00968,-0.291203 0.12469,0.03436 0.2556,0.05119 0.37408,0.103089 0.10323,0.04522 0.38407,0.234998 0.28315,0.184799 -0.4941,-0.24579 -0.95113,-0.569548 -1.46437,-0.772388 -0.0952,-0.03764 0.12029,0.166984 0.16531,0.258969 0.12311,0.251553 0.13287,0.418812 0.18543,0.697391 0.10031,0.884275 0.0806,1.776609 0.074,2.664963 -0.0368,0.828109 -0.32032,1.584111 -0.68109,2.317618 -0.43473,0.678021 -0.65488,1.457766 -1.04892,2.156838 -0.47387,0.712576 -0.57127,1.525124 -0.64223,2.356146 -0.0746,1.036077 -0.14438,2.044589 0.26292,3.016552 0.44253,0.728385 1.18904,1.204833 1.89971,1.646145 0.8271,0.561813 1.64865,1.129075 2.47481,1.692185 0.83649,0.577188 1.22042,1.396063 1.58427,2.302854 0.35708,0.782994 0.46146,1.623166 0.52162,2.471396 0.0212,0.990056 -0.36573,1.815206 -1.12548,2.432801 -0.6887,0.3308 -1.28571,0.79367 -1.81427,1.34028 -0.4646,0.68962 0.016,1.21482 0.49699,1.71878 0.55231,0.58508 1.26447,0.96231 1.88956,1.45654 0.60768,0.44437 1.07822,1.03987 1.54516,1.62377 0.44767,0.61032 0.55228,1.34361 0.61819,2.0766 0.0878,0.76563 0.004,1.48916 -0.34558,2.17678 -0.31732,0.62343 -0.70594,1.19592 -1.33823,1.51858 -0.52775,0.15404 -1.06118,0.26039 -1.55288,0.51515 0,0 1.65433,1.09029 1.65433,1.09029 v 0 c 0.50193,-0.23147 1.04335,-0.32371 1.55641,-0.52326 0.64355,-0.37333 1.06419,-0.96263 1.39671,-1.6214 0.36917,-0.71713 0.48553,-1.46989 0.39713,-2.27367 -0.0575,-0.75824 -0.14557,-1.52462 -0.56892,-2.17881 -0.44827,-0.60325 -0.93802,-1.20547 -1.53268,-1.66655 -0.60476,-0.52041 -1.32452,-0.87113 -1.89397,-1.43318 -0.39289,-0.41017 -1.02414,-0.83444 -0.63375,-1.44776 0.53019,-0.53806 1.13154,-0.97178 1.79932,-1.32644 0.78247,-0.67638 1.21121,-1.54598 1.21471,-2.595095 -0.0542,-0.864285 -0.13414,-1.727559 -0.49383,-2.528355 -0.38234,-0.917975 -0.69675,-1.793761 -1.54307,-2.407285 -0.80758,-0.586155 -1.66542,-1.1053 -2.46767,-1.702475 -0.70301,-0.427945 -1.43971,-0.876207 -1.94455,-1.5377 -0.4549,-0.933582 -0.38821,-1.911019 -0.31029,-2.928342 0.0655,-0.803129 0.15199,-1.588617 0.60883,-2.278338 0.39212,-0.704162 0.61791,-1.485095 1.05421,-2.166268 0.37154,-0.760015 0.66741,-1.5421 0.72005,-2.397289 0.006,-0.898014 0.0227,-1.798534 -0.0578,-2.693992 -0.2286,-1.656136 -1.26556,-2.14593 -2.90996,-2.501744 -1.01259,0.003 -2.00115,0.229041 -3.00975,0.296576 -1.18271,0.0041 -2.36829,0.01156 -3.54701,-0.09997 -0.20604,-0.02698 -0.41354,-0.04455 -0.61814,-0.08094 -0.18746,-0.03335 -0.69523,-0.258678 -0.55669,-0.128053 0.36869,0.347631 0.864,0.530352 1.28403,0.813832 0.0982,0.06628 -0.23117,-0.07925 -0.31685,-0.161073 -0.18048,-0.172353 -0.088,-0.377341 -0.0572,-0.578062 0.30546,-0.808799 0.82005,-1.458926 1.29443,-2.170994 0.0741,-0.23364 0.16536,-0.384455 0.0841,-0.63429 -0.34086,-1.047621 -2.08165,-1.535039 -3.14081,-1.762443 -1.18441,-0.07734 -2.37395,-0.0361 -3.55792,0.03828 -1.3581,0.116742 -2.73022,0.265964 -4.02035,0.73144 -0.49548,0.169831 -1.01211,0.393243 -1.55055,0.327192 -0.16382,-0.02011 -0.60299,-0.235551 -0.47856,-0.127116 0.36951,0.321995 0.81432,0.547184 1.2398,0.790471 0.13304,0.07608 -0.23949,-0.191312 -0.35924,-0.286967 -0.78094,-0.694708 -1.67774,-1.271235 -2.2819,-2.146953 -0.42487,-0.845087 -0.45585,-1.73396 -0.59763,-2.656192 -0.21877,-0.952783 -0.53209,-1.878258 -0.87007,-2.794489 -2.26255,-1.428848 -2.17263,-1.67435 -4.581649,-0.993823 -1.1346,0.36994 -2.531889,0.754708 -3.21493,1.801918 -0.101496,0.738135 0.0218,1.573279 -0.420737,2.214745 -0.597475,0.314966 -1.132081,0.649063 -1.579883,1.169242 -0.800071,0.397227 -1.681686,0.303458 -2.528271,0.0883 -0.865944,-0.302437 -0.53417,-0.217347 0.906018,0.653643 0.127249,0.07696 -0.260154,-0.145841 -0.37942,-0.234667 -0.39664,-0.29541 -0.690071,-0.677238 -0.885143,-1.130538 -0.752152,-1.420291 -1.921864,-2.281203 -3.454244,-2.91053 -0.907404,-0.256165 -1.835205,-0.234876 -2.771809,-0.205058 -0.849119,0.02355 -1.725591,0.02537 -2.478622,0.473327 -0.68875,0.531159 -1.083191,1.29513 -1.330156,2.121357 -0.142557,0.817457 -0.132524,1.660798 -0.383974,2.460723 -0.284318,1.032185 -0.531457,2.055133 -0.588957,3.129738 -0.267912,1.100849 -0.565089,1.686988 -1.777111,1.836534 -1.232982,0.06108 -2.48167,-0.06218 -3.673697,-0.388528 -0.190135,-0.07147 -0.726062,-0.344905 -0.570405,-0.214408 0.346893,0.290828 0.767223,0.481008 1.158965,0.70784 0.165958,0.09609 -0.324493,-0.20479 -0.481171,-0.31537 -0.04148,-0.02928 -0.856247,-0.648719 -0.909108,-0.693896 -0.15879,-0.135705 -0.304919,-0.285562 -0.457377,-0.428342 -1.492317,-1.56178 -3.026977,-3.012927 -5.104824,-3.816996 C 67.698348,70.21964 66.7682,70.01022 65.744987,70.09749 c -1.040794,-0.0021 -2.087948,-0.01746 -3.120424,0.134358 -0.95055,0.215355 -1.669963,0.633045 -2.052637,1.579343 -0.333174,0.963695 -0.472303,1.987338 -0.454978,3.006974 0.0067,1.024855 0.02408,2.050936 -0.02804,3.0749 -0.06216,0.727501 -0.03919,1.621396 -0.883928,1.840476 -1.074991,0.152239 -2.173153,0.132469 -3.241686,0.351941 -1.328867,0.218567 -2.647076,0.535228 -4.0021,0.505185 -1.081892,0.08359 -2.231816,0.180755 -3.090299,0.916127 -0.61817,0.813163 -0.892905,1.762287 -0.678519,2.779935 0.267489,1.370026 0.735724,2.669924 1.442503,3.879487 0.507352,1.034151 1.036005,2.056935 1.649847,3.032501 0.552923,0.75991 0.831252,1.568249 0.600313,2.511155 -0.251143,1.140555 -0.725435,2.192629 -1.348293,3.181213 -0.508778,0.675491 -0.953304,1.364054 -1.881158,1.350179 -0.988836,-0.0176 -1.979835,-0.04115 -2.961648,-0.170752 -0.882711,-0.126981 -1.759072,-0.313092 -2.657168,-0.235106 -0.952948,0.02574 -1.958586,0.01789 -2.836852,0.431943 -0.679493,0.523476 -0.991222,1.293166 -1.132864,2.127731 0.0984,0.90379 0.462629,1.73302 0.868082,2.54092 0.411096,0.97156 1.0624,1.78165 1.72656,2.59419 0.707308,0.76053 1.427974,1.50738 2.105075,2.29578 0.54174,0.7668 0.920083,1.67371 0.899956,2.62515 -0.07761,0.97298 -0.487542,1.79125 -1.275154,2.39206 -0.851379,0.75042 -1.708713,1.50028 -2.650098,2.1377 z"
         transform="matrix(0.991599,0,0,-0.87360203,-10.781573,232.91997)" />
      <circle
         id="path37"
         style="fill:#ff0000;stroke:#e1e227;stroke-width:0.264583"
         cx="84.117958"
         cy="175.62466"
         r="0.51632798" />
      <path
         style="opacity:0.99;fill:#008000;fill-opacity:0.952646;stroke:#e1e227;stroke-width:7.21799;stroke-linejoin:round;stroke-miterlimit:4.7;stroke-dasharray:none;stroke-opacity:0.0362117;filter:url(#filter45)"
         id="path43"
         d="m 59.817571,140.35754 c 0.7769,-1.20049 1.70239,-2.29731 2.58016,-3.42423 1.069,-1.39372 2.08738,-2.81578 3.23358,-4.14867 1.57081,-1.69735 3.23859,-3.30448 4.97986,-4.82591 0.65008,-0.51817 1.24291,-0.99399 2.10198,-0.80832 0.11634,0.0416 0.2329,0.0825 0.34902,0.12463 0.25164,0.0913 0.95991,0.47338 0.7267,0.34194 -0.43075,-0.24278 -0.83447,-0.54028 -1.29039,-0.73164 -0.15389,-0.0646 0.25363,0.21848 0.36466,0.34309 0.12291,0.13795 0.22312,0.29455 0.33468,0.44183 0.79702,1.30162 0.97529,2.83999 1.12904,4.32754 0.14811,1.51106 0.18947,3.03569 0.39803,4.53968 0.27768,1.56061 0.65405,3.09437 1.22542,4.57377 0.7133,1.60356 1.70744,2.66252 3.12915,3.65558 1.98329,1.27265 3.59188,2.06294 5.91544,1.95541 1.18702,-0.16094 1.58386,-0.86285 2.05546,-1.86264 0.58577,-1.27657 0.90266,-2.64265 1.19872,-4.00804 0.30453,-1.58919 0.65344,-3.16847 1.04016,-4.73955 0.21479,-0.78085 0.45972,-1.55362 0.7228,-2.31949 0.13333,-0.38815 0.35915,-1.07957 0.59074,-1.43945 0.11633,-0.18079 0.28328,-0.32344 0.42492,-0.48516 0.16651,-0.11488 0.31623,-0.25906 0.49953,-0.34462 0.96143,-0.44881 2.08074,-0.0449 2.95637,0.38262 -0.34813,-0.19183 -0.66536,-0.45584 -1.04441,-0.57548 -0.24206,-0.0764 0.41867,0.2875 0.62035,0.44162 0.93978,0.71817 1.74797,1.56548 2.52737,2.45008 1.44668,1.73228 2.63659,3.65409 3.889409,5.52537 1.29671,1.89474 2.68371,3.77831 4.35242,5.3681 0.33354,0.31777 0.68987,0.61072 1.0348,0.91608 1.69984,1.35896 3.56198,2.81838 5.72905,3.30255 0.80548,0.17995 1.11593,0.13672 1.92051,0.13536 0.96361,-0.10607 2.08093,-0.28109 2.76786,-1.05985 0.44421,-0.5036 1.00875,-1.60003 1.31972,-2.15967 0.80576,-1.79567 1.80337,-3.53364 2.23201,-5.46837 0.11732,-1.2659 -0.23032,-2.49474 -0.47851,-3.72296 -0.15216,-0.74482 -0.31401,-1.48205 0.0519,-2.18118 0.61207,-0.71279 1.70667,-0.65904 2.56699,-0.71128 1.9643,0.0119 3.90956,-0.18359 5.84879,-0.4791 2.87583,-0.3314 5.27143,-1.53265 7.77855,-2.88049 1.94547,-1.06007 3.73629,-2.37727 5.33751,-3.90503 0.74571,-0.77406 1.63634,-1.59013 1.87763,-2.69016 0.035,-0.15957 0.0296,-0.32538 0.0444,-0.48807 -0.1566,-1.7399 -1.48175,-2.97481 -2.63636,-4.15367 -2.01632,-1.88835 -4.50148,-3.17479 -6.96381,-4.38176 -1.10147,-0.51818 -2.24173,-0.94699 -3.36119,-1.4224 -0.22284,-0.0946 -0.8592,-0.43972 -0.66134,-0.30021 0.34782,0.24524 0.74384,0.41374 1.11576,0.62062 -0.67201,-0.50261 -1.22664,-0.96271 -1.13589,-1.85718 0.43688,-1.00214 1.36076,-1.72574 2.19062,-2.39866 1.4497,-1.00653 2.91807,-1.98988 4.40321,-2.94411 1.5118,-1.00135 2.85903,-2.22071 4.18971,-3.44675 0.65151,-0.7298 1.54273,-1.25991 2.10422,-2.07346 0.28727,-0.41623 0.34867,-0.67206 0.52172,-1.14006 0.4385,-1.32676 0.25628,-2.46832 -0.32637,-3.70867 -0.33176,-0.595397 -0.78412,-1.100148 -1.37156,-1.456598 -2.01313,-1.22155 -2.32608,-1.4013 -4.25537,-1.95317 -1.9617,-0.47694 -3.91748,-0.95645 -5.8325,-1.59935 -0.58508,-0.22819 -0.78582,-0.28987 -1.33258,-0.56359 -0.178,-0.0891 -0.70132,-0.37695 -0.52398,-0.28651 1.9367,0.98775 1.25453,0.82425 0.70193,-0.002 -0.38678,-0.84301 -0.29804,-1.83323 0.15237,-2.6403 0.12477,-0.22356 0.2872,-0.42392 0.4308,-0.63589 1.46127,-1.53094 3.33054,-2.58695 5.05812,-3.78501 1.2319,-0.92327 2.39226,-2.03406 3.0823,-3.43494 0.10228,-0.20763 0.16626,-0.43202 0.24939,-0.64803 0.0116,-0.21852 0.0594,-0.4381 0.0349,-0.65556 -0.17117,-1.52293 -2.27162,-2.70831 -3.40695,-3.48132 -2.263,-1.48931 -4.65305,-2.78046 -7.13924,-3.85483 -0.85862,-0.32838 -1.68319,-0.7656 -2.58162,-0.98269 -0.61715,-0.14912 -0.70662,-0.13032 -1.34088,-0.17938 -1.474,-0.0738 -2.88541,0.46594 -4.30056,0.80572 -0.72917,0.13878 -1.48187,0.38522 -2.23299,0.24886 -0.38917,-0.0707 -0.62285,-0.19222 -0.985,-0.34405 -0.15312,-0.0828 -0.61646,-0.32341 -0.45936,-0.24843 0.40534,0.19344 0.76148,0.52967 1.20441,0.60401 0.22407,0.0376 -0.33107,-0.31221 -0.48131,-0.48265 -0.64848,-0.73563 -1.02336,-1.55809 -1.42623,-2.44374 -0.87932,-2.36236 -1.72948,-4.74252 -2.47796,-7.15033 -0.35515,-1.1104 -0.60724,-2.28144 -1.17261,-3.31367 -0.29606,-0.54054 -0.43305,-0.6417 -0.84173,-1.10142 -2.48999,-1.97349 -4.61828,-2.42126 -7.59705,-2.7482 -2.38543,-0.28281 -4.737909,0.085 -7.017529,0.77591 -0.89789,0.3207 -1.88046,0.7159 -2.32883,1.63272 -0.23062,0.47156 -0.38255,1.30006 -0.4913,1.77719 -0.4892,2.71042 -0.96853,5.42312 -1.4096,8.14188 -0.43197,2.89978 -1.02692,5.77038 -1.65301,8.63327 -0.2484,0.87958 -0.41649,2.05734 -1.31627,2.54536 -0.4488,0.24342 -0.92273,0.2816 -1.41578,0.37077 -1.79926,0.17562 -3.61752,0.20376 -5.41713,0.0116 -1.0209,-0.10899 -1.94467,-0.28864 -2.95182,-0.46649 -0.79155,-0.19026 -1.61739,-0.35669 -2.37807,-0.6602 -0.34323,-0.13696 -0.64213,-0.37995 -0.99564,-0.48762 -0.28427,-0.0866 0.64379,0.68503 0.78456,0.42333 0.14292,-0.26572 -0.48021,-0.36583 -0.71085,-0.56036 -0.21344,-0.18002 -0.41374,-0.37507 -0.6206,-0.56261 -0.95516,-1.04518 -1.79879,-2.18491 -2.7765,-3.21036 -0.94297,-0.94807 -1.96357,-1.8149 -3.10953,-2.50543 -1.55387,-0.91364 -3.16677,-1.92457 -4.99069,-1.34496 -0.67924,0.31173 -1.18727,0.83482 -1.51853,1.49616 -0.34576,1.03167 -0.42068,2.1437 -0.51654,3.22302 -0.0902,1.43922 -0.1032,2.88211 -0.11524,4.32373 -0.006,1.00866 -0.009,2.01731 -0.0103,3.02599 -0.0183,0.87691 -0.56844,1.16638 -1.30096,1.57906 -1.17973,0.66462 -1.40834,0.73522 -2.66529,1.30807 -1.57893,0.6102 -3.1392,1.3785 -4.81131,1.71501 -0.96577,0.19437 -1.36978,0.16691 -2.372,0.20509 -2.59367,-0.0687 -5.12002,-0.70212 -7.67468,-1.08884 -1.40223,-0.17055 -2.83204,-0.48629 -4.22213,-0.10916 -0.122,0.086 -0.27288,0.14132 -0.36602,0.25796 -0.684,0.85661 -0.62515,3.15299 -0.62225,4.20059 0.15103,1.49608 0.5501,2.97168 1.3027,4.28206 0.40639,0.7076 0.71452,1.06479 1.20768,1.70632 1.88547,2.257738 4.50813,3.622458 7.01078,5.070688 1.01438,0.53602 2.03698,1.054 3.03796,1.61494 0.26732,0.1498 1.0693,0.59902 0.79926,0.45417 -0.57512,-0.30848 -1.63397,-0.93667 -0.39943,-0.21003 0.87611,0.50719 1.6076,1.13184 2.17433,1.96771 0.5646,0.85996 0.37109,1.7724 0.0141,2.67039 -0.39015,1.02511 -1.09064,1.86742 -1.66759,2.78191 -0.77044,1.18238 -1.43651,2.42538 -2.04422,3.69819 -0.76956,1.5429 -1.42043,3.12252 -1.82002,4.80049 -0.24352,1.09888 -0.33664,2.22215 -0.36609,3.34493 -0.0129,0.8924 0.30245,1.66702 0.82969,2.37125 0.97172,0.94358 2.16729,1.53616 3.38374,2.13588 0.21465,0.10583 1.06151,0.29396 1.28875,0.34813 0.70047,0.21695 1.45982,0.28536 2.13228,0.59424 0.27539,0.1265 0.52293,0.30648 0.78552,0.45777 -0.43423,-0.23698 -0.83357,-0.55397 -1.30269,-0.71094 -0.18003,-0.0602 0.27941,0.25925 0.39736,0.40801 0.60835,0.76725 0.92925,1.75101 1.24616,2.66129 0.45569,1.53954 0.55418,3.15026 0.70581,4.7402 0.10774,0.98348 7.9e-4,2.04172 0.5789,2.89269 0.40084,0.45404 0.56,1.00846 0.71933,1.57558 0.0931,0.35666 0.21449,0.70602 0.35626,1.04607 0,0 1.80482,0.81977 1.80482,0.81977 v 0 c -0.1753,-0.31727 -0.2807,-0.67107 -0.37727,-1.01942 -0.17213,-0.57636 -0.28125,-1.17057 -0.68989,-1.64253 -0.68236,-0.79201 -0.54741,-1.82956 -0.66431,-2.81231 -0.15182,-1.60242 -0.25153,-3.22305 -0.68535,-4.78071 -0.25342,-0.75284 -0.90731,-2.70696 -1.5689,-3.16832 -0.65416,-0.45617 -1.3631,-0.82825 -2.04465,-1.24238 -0.22158,-0.12483 -0.56995,-0.33019 -0.8055,-0.42574 -0.68295,-0.27703 -1.42734,-0.36494 -2.13046,-0.57241 -0.2145,-0.0554 -0.43138,-0.10228 -0.6435,-0.1662 -0.21212,-0.0639 -0.78929,-0.36913 -0.62821,-0.21702 0.32923,0.31091 0.77605,0.46725 1.15527,0.71474 0.14263,0.0931 -0.3037,-0.15605 -0.44498,-0.25118 -0.13575,-0.0914 -0.25582,-0.20417 -0.38345,-0.30661 -0.12746,-0.1023 -0.25454,-0.20509 -0.38181,-0.30763 -0.55042,-0.65001 -0.87498,-1.38507 -0.88662,-2.24748 0.0209,-1.11443 0.0866,-2.23067 0.31905,-3.32408 0.383,-1.66839 1.02618,-3.23693 1.79578,-4.76515 0.6183,-1.25878 1.28072,-2.49485 2.05092,-3.66794 0.59554,-0.91774 1.29373,-1.77512 1.68899,-2.81113 0.38234,-0.92936 0.6302,-1.91759 0.0774,-2.83524 -0.55153,-0.87451 -1.25918,-1.53279 -2.15645,-2.05791 -2.21796,-1.2893 -4.42573,-2.59377 -6.71957,-3.74578 0.17808,0.10414 0.70625,0.42632 0.53424,0.31244 -0.34063,-0.22551 -0.69939,-0.42276 -1.04047,-0.64758 -1.20205,-0.79229 -2.33813,-1.69845 -3.27959,-2.793067 -0.49573,-0.626961 -0.81104,-0.985021 -1.22532,-1.675271 -0.76673,-1.27745 -1.18263,-2.72416 -1.33915,-4.19913 -7e-5,-0.93086 -0.0589,-3.26556 0.57447,-4.00863 0.0833,-0.0977 0.21747,-0.13641 0.32621,-0.20461 1.36396,-0.32629 2.76186,-0.0181 4.13128,0.13931 2.55521,0.39064 5.08891,0.99895 7.68425,1.0506 1.03514,-0.0462 1.41657,-0.0176 2.4108,-0.23004 1.66801,-0.35646 3.21233,-1.15847 4.79364,-1.76336 1.11321,-0.50502 1.65116,-0.72301 2.71232,-1.30359 0.86447,-0.47296 1.39597,-0.71631 1.45013,-1.72279 -0.004,-1.01155 -0.0116,-2.02309 -0.01,-3.03465 0.005,-1.43665 0.009,-2.87482 0.1101,-4.30865 0.0904,-1.05494 0.17548,-2.13547 0.50267,-3.14665 0.30619,-0.61323 0.78827,-1.09712 1.42871,-1.36214 0.66584,-0.18007 1.26654,-0.16002 1.93803,0.0131 0.20817,0.0537 0.75044,0.35901 0.61588,0.19137 -0.24941,-0.31073 -0.66301,-0.44207 -0.99452,-0.66311 1.16334,0.65031 2.17597,1.52612 3.12748,2.45549 1.00203,1.01037 1.84581,2.16025 2.786,3.22634 0.27883,0.25823 1.02094,0.96643 1.32973,1.16339 2.0354,1.29824 3.539,2.12454 5.87253,2.54197 2.82419,0.47438 5.58683,0.77563 8.45042,0.42953 0.55991,-0.11244 0.99188,-0.14278 1.48648,-0.43983 0.91746,-0.55102 1.09401,-1.7461 1.33549,-2.68369 0.59975,-2.87302 1.16853,-5.75244 1.64299,-8.64923 0.44036,-2.71123 0.89793,-5.42057 1.43089,-8.1153 0.0978,-0.4004 0.28046,-1.27982 0.48542,-1.69629 0.42905,-0.8718 1.38577,-1.22918 2.23402,-1.54136 2.260279,-0.68982 4.594729,-1.02163 6.957419,-0.72322 1.16018,0.13659 2.31364,0.2736 3.43685,0.61301 0.3311,0.10006 0.73356,0.59869 0.97612,0.3521 0.22411,-0.22784 -0.54235,-0.34033 -0.79425,-0.537 -0.21037,-0.16424 0.44621,0.29297 0.66932,0.43946 0.39244,0.41018 0.579,0.55679 0.86804,1.0487 0.59738,1.0167 0.8544,2.19676 1.21664,3.30452 0.74966,2.41363 1.62436,4.79083 2.47234,7.17108 1.06782,2.53368 1.70853,3.2806 4.42235,4.56757 0.40899,0.14975 0.5908,0.24298 1.02688,0.29662 0.76046,0.0935 1.5117,-0.16426 2.24647,-0.30851 1.40108,-0.34551 2.80521,-0.85909 4.26848,-0.7501 1.38929,0.14681 2.60739,0.62561 3.87337,1.20222 0.98588,0.43214 0.5958,0.25139 1.61641,0.74116 0.30933,0.14843 0.58396,0.45371 0.927,0.44735 0.27595,-0.005 -0.94693,-0.56192 -0.69392,-0.45167 0.34378,0.14979 1.7178,1.04175 2.01699,1.23211 1.03907,0.69643 3.20413,1.93733 3.43888,3.28415 0.0344,0.19759 -7.9e-4,0.40113 -0.001,0.6017 -0.0742,0.20821 -0.12792,0.42484 -0.22244,0.62463 -0.65607,1.38672 -1.82009,2.46539 -3.02267,3.37375 -1.7436,1.21782 -3.63017,2.29011 -5.11298,3.83308 -0.15249,0.22075 -0.3244,0.42927 -0.45747,0.66222 -0.48234,0.84438 -0.59904,1.88909 -0.25567,2.7989 0.62516,1.10805 1.2866,1.22545 2.61116,2.01636 0.58123,0.34705 1.22825,0.57421 1.85869,0.81007 1.91603,0.62584 3.87296,1.08698 5.82474,1.58519 0.32859,0.0994 0.66112,0.18648 0.98576,0.29805 0.29668,0.10196 0.93539,0.65024 0.87676,0.34206 -0.0672,-0.35349 -0.59369,-0.41268 -0.91932,-0.56578 -0.21989,-0.10339 0.41141,0.26095 0.59913,0.41523 0.44097,0.36245 0.48832,0.4963 0.80308,0.951691 0.6269,1.226707 0.80103,2.227677 0.39316,3.566897 -0.1635,0.45287 -0.21227,0.67907 -0.48773,1.0804 -0.55369,0.80668 -1.42425,1.34417 -2.06883,2.06698 -1.32573,1.21778 -2.66592,2.43217 -4.18044,3.41412 -1.48369,0.96827 -2.95682,1.95579 -4.4151,2.96075 -0.87427,0.7064 -1.83753,1.45501 -2.30179,2.5072 -0.0318,0.21878 -0.0853,0.44851 -0.0343,0.67151 0.13578,0.59319 0.661,1.04074 1.10335,1.40321 0.73842,0.42746 1.46664,0.87306 2.21527,1.28238 0.26156,0.14301 1.1248,0.4728 1.38475,0.57963 0.87786,0.36077 1.74958,0.73754 2.61277,1.13205 0.306,0.15054 0.5772,0.43922 0.91799,0.45161 0.26493,0.01 -0.91281,-0.52515 -0.66099,-0.44227 0.33405,0.10996 0.61581,0.34048 0.91472,0.52579 0.90384,0.56031 1.76373,1.1959 2.5397,1.92405 1.12814,1.13712 2.43015,2.31075 2.65651,3.98338 -0.006,0.14873 0.0107,0.29986 -0.0165,0.4462 -0.1996,1.07583 -1.09708,1.86758 -1.80401,2.6238 -1.58282,1.51598 -3.33899,2.84262 -5.27069,3.88699 -0.77059,0.41646 -1.75106,0.96288 -2.54595,1.32388 -1.65728,0.75265 -3.40874,1.2589 -5.21469,1.48985 -1.9478,0.28617 -3.90058,0.45129 -5.87083,0.44305 -0.94352,0.0597 -2.06982,0.0419 -2.70269,0.86194 -0.39397,0.74344 -0.2808,1.5093 -0.10012,2.30829 0.25137,1.20686 0.60826,2.41218 0.5278,3.65793 -0.3941,1.92552 -1.34933,3.66752 -2.15431,5.44541 -0.35619,0.62526 -0.81129,1.52244 -1.32092,2.0651 -0.68196,0.72614 -1.75846,0.87482 -2.68657,0.96475 -0.79482,-0.0142 -1.08311,0.0237 -1.87556,-0.17371 -0.34101,-0.0849 -0.65396,-0.39329 -1.00024,-0.3333 -0.2332,0.0404 0.78766,0.52409 0.58276,0.40563 -1.02032,-0.58985 -1.14064,-0.74941 -2.06341,-1.49912 -0.34723,-0.30137 -0.7058,-0.59015 -1.04169,-0.90411 -1.67642,-1.56698 -3.0638,-3.44338 -4.35331,-5.32999 -1.25253,-1.868 -2.428459,-3.79449 -3.857239,-5.53741 -1.53463,-1.79276 -3.21821,-3.25123 -5.38825,-4.26956 -0.9522,-0.41245 -2.08549,-0.74259 -3.07824,-0.21836 -0.19126,0.10099 -0.34743,0.2577 -0.52114,0.38655 -0.14848,0.1778 -0.32238,0.33714 -0.44543,0.5334 -0.22807,0.36373 -0.45983,1.0718 -0.59479,1.46311 -0.26562,0.77015 -0.51669,1.54595 -0.73631,2.33056 -0.37553,1.57438 -0.72782,3.1531 -1.05104,4.73916 -0.29132,1.35166 -0.58,2.70937 -1.18244,3.96548 -0.45526,0.94482 -0.8118,1.56665 -1.94164,1.68348 -0.93216,0.0253 -1.82957,-0.0728 -2.71562,-0.3835 -0.24965,-0.0875 -0.87831,-0.52222 -0.73477,-0.29999 0.19459,0.30126 0.60725,0.38176 0.91088,0.57264 -1.43465,-0.954 -2.43248,-1.96414 -3.16723,-3.54674 -0.5916,-1.46113 -0.96466,-2.98243 -1.24352,-4.5324 -0.22542,-1.50072 -0.25612,-3.02676 -0.40951,-4.53628 -0.15074,-1.5068 -0.31538,-3.06347 -1.06498,-4.40964 -0.11428,-0.16663 -0.47194,-0.72846 -0.66134,-0.85367 -0.99802,-0.65983 -2.0269,-1.32143 -3.19183,-1.62373 -0.86505,-0.0714 -1.53856,0.41556 -2.16771,0.97025 -1.70872,1.56328 -3.35927,3.19025 -4.95441,4.8693 -1.16898,1.32201 -2.22114,2.72224 -3.27277,4.13755 -0.88449,1.13633 -1.80877,2.24391 -2.6342,3.42479 z"
         transform="matrix(0.99761559,0,0,1.0815647,-17.403138,14.859243)" />
      <text
         xml:space="preserve"
         style="font-size:15.4159px;line-height:0px;font-family:'Blackadder ITC';-inkscape-font-specification:'Blackadder ITC';text-align:start;text-anchor:start;opacity:0.99;fill:#ffb000;fill-opacity:0.339833;stroke:#e18787;stroke-width:6.95448;stroke-linejoin:round;stroke-miterlimit:4.7;stroke-dasharray:none;stroke-opacity:0.0724234;filter:url(#filter47)"
         x="54.139977"
         y="48.704983"
         id="text45"
         inkscape:transform-center-x="-4.7237211"
         inkscape:transform-center-y="1.0405004"
         transform="matrix(-0.84651799,-0.00368351,-0.00267766,0.39772826,161.33085,120.72003)"><tspan
           sodipodi:role="line"
           id="tspan45"
           style="fill:#ffb000;fill-opacity:0.339833;stroke:#e18787;stroke-width:6.95449;stroke-opacity:0.0724234"
           x="54.139977"
           y="48.704983">mjdggsshdjdhsggs</tspan></text>
    </g>
  </g>
</svg>
